<?xml version="1.0" standalone="no"?>
<!DOCTYPE svg PUBLIC "-//W3C//DTD SVG 20010904//EN"
 "http://www.w3.org/TR/2001/REC-SVG-20010904/DTD/svg10.dtd">
<svg version="1.0" xmlns="http://www.w3.org/2000/svg"
 width="48.000000pt" height="48.000000pt" viewBox="0 0 48.000000 48.000000"
 preserveAspectRatio="xMidYMid meet">

<g transform="translate(0.000000,48.000000) scale(0.100000,-0.100000)"
fill="#000000" stroke="none">
<path d="M168 445 c-6 -13 -28 -36 -49 -50 -108 -71 -130 -216 -46 -311 109
-125 308 -93 372 59 12 30 14 61 9 165 -4 70 -11 135 -16 145 -13 26 -46 21
-76 -12 -21 -22 -32 -27 -47 -21 -11 5 -32 9 -46 9 -14 1 -34 10 -44 21 -24
27 -43 25 -57 -5z m68 -36 c18 -36 18 -39 -4 -39 -10 0 -28 -7 -40 -16 -22
-15 -22 -15 -22 33 0 79 31 89 66 22z m193 37 c9 -10 11 -58 7 -166 -4 -143
-6 -153 -30 -184 -34 -45 -100 -76 -162 -76 -53 0 -94 8 -94 19 0 15 100 72
140 80 40 8 36 9 -43 10 -59 1 -98 6 -118 17 -40 20 -33 26 15 13 21 -6 50 -7
65 -3 22 6 19 8 -27 15 -29 4 -64 14 -78 24 l-26 17 21 22 c27 29 27 44 -1 49
-13 2 0 5 28 6 36 1 60 8 78 22 37 29 25 36 -13 8 -17 -12 -33 -20 -37 -17 -3
4 11 18 32 32 25 17 40 22 45 15 5 -8 12 -8 27 0 11 6 29 11 40 11 11 0 28 12
37 28 43 67 72 85 94 58z"/>
<path d="M377 382 c-22 -24 -21 -35 2 -56 17 -16 19 -15 25 15 12 62 4 75 -27
41z"/>
<path d="M242 283 c2 -10 10 -18 18 -18 8 0 16 8 18 18 2 12 -3 17 -18 17 -15
0 -20 -5 -18 -17z"/>
</g>
</svg>
