<svg class="block md:hidden" fill="none" height="28" viewBox="0 0 170 28" width="170" xmlns="http://www.w3.org/2000/svg">
	<path 
		d="M120.494 8.69216H115.067V22.0934H112.193V8.69216H106.857V6.05615H120.498L120.494 8.69216Z" 
		fill="#1890FF"/>
	<path 
		d="M133.645 15.1589H126.241V19.4669H134.749V22.0997H123.367V6.05615H134.495V8.69216H126.247V12.5166H133.651L133.645 15.1589Z" 
		fill="#1890FF"/>
	<path d="M151.305 20.3289C151.064 20.6098 150.782 20.8528 150.468 21.0495C150.068 21.304 149.643 21.5159 149.199 21.6817C148.666 21.8857 148.116 22.0432 147.556 22.1526C146.916 22.2787 146.264 22.3401 145.611 22.3359C144.392 22.3524 143.18 22.1589 142.027 21.7639C141.006 21.4137 140.07 20.8562 139.277 20.1266C138.505 19.3968 137.902 18.5095 137.507 17.5254C137.069 16.4189 136.854 15.2377 136.872 14.0487C136.863 12.9106 137.078 11.7818 137.507 10.7268C137.903 9.74081 138.507 8.85068 139.277 8.11607C140.072 7.3635 141.015 6.78248 142.046 6.4093C143.206 5.98811 144.434 5.78139 145.669 5.79929C146.775 5.77498 147.878 5.93413 148.933 6.27023C149.658 6.50601 150.348 6.83768 150.985 7.25636V11.2325C150.718 10.8589 150.413 10.5137 150.075 10.2021C149.704 9.85883 149.295 9.55873 148.857 9.30764C148.385 9.04013 147.883 8.828 147.362 8.67551C146.806 8.51331 146.229 8.43239 145.65 8.4353C144.841 8.42455 144.037 8.56389 143.28 8.84618C142.609 9.10061 141.999 9.49133 141.488 9.99351C140.987 10.4972 140.603 11.1033 140.362 11.7698C140.092 12.5067 139.958 13.2864 139.968 14.0708C139.963 14.8158 140.084 15.5564 140.327 16.2611C140.551 16.9313 140.92 17.5447 141.406 18.0588C141.893 18.573 142.485 18.9755 143.144 19.2385C143.917 19.5504 144.745 19.7092 145.58 19.7063C146.235 19.7122 146.888 19.6357 147.524 19.4787C148.084 19.3338 148.624 19.1215 149.133 18.8466C149.596 18.6002 150.022 18.2918 150.401 17.93C150.757 17.5959 151.06 17.2101 151.299 16.7858L151.305 20.3289Z" 
		fill="#1890FF"/>
	<path 
		d="M166.424 15.1589H157.608V22.1124H154.734V6.05615H157.608V12.5166H166.424V6.05615H169.279V22.0934H166.424V15.1589Z" 
		fill="#1890FF"/>
	<path 
		d="M42.7718 12.5893C40.8907 12.1468 39.2824 11.7675 39.2824 10.4622C39.2824 8.71117 41.4426 8.52153 42.3721 8.52153C43.4003 8.48032 44.423 8.69086 45.3507 9.1347L47.9424 7.2383C46.2689 6.22474 44.3525 5.67886 42.3943 5.65796C37.5219 5.65796 35.7867 8.24023 35.7867 10.655C35.7867 14.1317 38.8224 14.8618 41.4966 15.5003C43.3776 15.9491 45.0018 16.3379 45.0018 17.6622C45.0018 18.3449 44.5957 19.4859 41.8677 19.4859C40.0053 19.4682 38.1919 18.8897 36.6654 17.8265L35.4727 20.5321C36.9096 21.6478 39.3966 22.3653 41.8391 22.3653C45.8805 22.3653 48.5007 20.412 48.5007 17.3904C48.4911 13.9326 45.4522 13.2183 42.7718 12.5893Z" 
		fill="white"/>
	<path 
		d="M63.2958 13.7456L63.1277 13.6887L63.2832 13.6065C63.9226 13.2737 64.4554 12.7687 64.8211 12.149C65.1867 11.5294 65.3705 10.8199 65.3514 10.1013C65.3514 7.49377 63.1309 5.93872 59.4227 5.93872H51.7461V22.0834H59.8731C63.9176 22.0834 66.1444 20.5315 66.1444 17.7122C66.1836 16.8288 65.9243 15.9578 65.4078 15.2386C64.8914 14.5195 64.1477 13.9937 63.2958 13.7456ZM55.2418 8.61581H58.9691C61.3164 8.61581 61.824 9.6936 61.824 10.5881C61.824 11.8871 60.8438 12.5603 58.9691 12.5603H55.2418V8.61581ZM55.2418 12.5603H58.9691H55.2418ZM59.6035 19.3811H55.2418V15.2501H59.6035C61.5924 15.2501 62.6012 15.9359 62.6012 17.3171C62.6012 18.6984 61.621 19.3811 59.6035 19.3811Z" 
		fill="white"/>
	<path 
		d="M77.9854 8.61527L81.6461 5.92554H69.3984V22.0703H81.6461V19.3805H72.8941V15.2495H80.3613V12.5598H72.8941V8.61527H77.9854Z" 
		fill="white"/>
	<path 
		d="M98.7175 22.0703L95.1615 16.8235C97.2583 15.9133 98.4701 14.1148 98.4701 11.7032C98.4701 8.14117 95.8277 5.92554 91.5707 5.92554H84.8965V22.0703H88.3858V17.4968H91.558H91.853L94.9585 22.0766L98.7175 22.0703ZM88.3858 8.61527H91.485C93.7246 8.61527 94.9585 9.71518 94.9585 11.7127C94.9585 13.7103 93.7246 14.8102 91.485 14.8102H88.3858V8.61527Z" 
		fill="white"/>
	<path 
		d="M27.6712 13.9987C27.6723 13.1931 27.6001 12.3891 27.4555 11.5966L24.5562 13.7237C24.5562 13.8154 24.5562 13.907 24.5562 13.9987C24.5591 16.3066 23.7861 18.549 22.3606 20.3681C20.9352 22.1872 18.9393 23.4783 16.6915 24.0353C14.4437 24.5923 12.0734 24.3831 9.95878 23.4412C7.84418 22.4993 6.1071 20.8788 5.02466 18.8384C3.94223 16.798 3.5768 14.4552 3.98669 12.1837C4.39657 9.91219 5.55815 7.84291 7.28612 6.30596C9.01408 4.76902 11.2089 3.85298 13.5203 3.70397C15.8318 3.55495 18.1267 4.18156 20.0391 5.48383L22.6561 3.56214C20.2801 1.65241 17.3231 0.604194 14.2705 0.589512C11.2178 0.57483 8.25083 1.59456 5.85644 3.48134C3.46206 5.36812 1.78252 8.00986 1.09347 10.973C0.404411 13.9362 0.746779 17.0447 2.06438 19.7884C3.38198 22.5322 5.59654 24.7481 8.3446 26.0726C11.0927 27.3971 14.211 27.7514 17.1878 27.0775C20.1646 26.4035 22.823 24.7413 24.7268 22.3636C26.6306 19.9859 27.6666 17.034 27.6649 13.9924L27.6712 13.9987Z" 
		fill="white"/>
	<path 
		d="M24.8603 5.79688C25.5012 6.62017 26.0431 7.51548 26.4749 8.46448L14.2082 17.4724L9.08203 14.2706V10.4178L14.2082 13.6195L24.8603 5.79688Z" 
		fill="white"/>
</svg>